<svg aria-hidden="true" style="width:0;height:0;position:absolute;overflow:hidden" xmlns="http://www.w3.org/2000/svg"><defs><symbol id="icon-basket" viewBox="0 0 32 32"><path stroke-width="1.778" d="m31.513 9.178.002.001-4.4 9.777a1.465 1.465 0 0 1-1.24.861l-12.671.844.732 2.092h13.797a2.934 2.934 0 1 1-2.933 2.934H11.111a2.933 2.933 0 1 1-2.933-2.934h2.651L5.182 6.62h-3.36a1.467 1.467 0 0 1 0-2.934h4.4c.64 0 1.179.412 1.379.984l.005-.002.854 2.441h21.717a1.467 1.467 0 0 1 1.336 2.068zm-22.026.866 2.711 7.746 12.603-.84 3.108-6.906H9.487z"/></symbol><symbol id="icon-creativity" viewBox="0 0 32 32"><path fill="#95e1d3" style="fill:var(--color2,#95e1d3)" d="M30 25h-9.5v2.5l2 2v.5h-13v-.5l2-2V25H2a1.5 1.5 0 0 1-1.5-1.5v-20A1.5 1.5 0 0 1 2 2h28a1.5 1.5 0 0 1 1.5 1.5v20A1.5 1.5 0 0 1 30 25zm-.5-21h-27v17h27V4zM13 11c.414 0 .789.168 1.061.439l.939.939 2.939-2.939a1.5 1.5 0 1 1 2.122 2.122l-4 4c-.271.271-.646.439-1.061.439s-.789-.168-1.061-.439l-2-2A1.5 1.5 0 0 1 13 11.001z"/></symbol><symbol id="icon-css-html" viewBox="0 0 32 32"><path fill="#95e1d3" style="fill:var(--color2,#95e1d3)" d="M32 17a1.5 1.5 0 0 1-1.5 1.5c-.395 0-.752-.156-1.02-.405l-.004.003L15.999 4.622 2.552 18.068a1.5 1.5 0 1 1-2.092-2.15L14.918 1.46a1.494 1.494 0 0 1 1.081-.461H16l.079.002.012.001c.023.002.045.003.067.006l.004.001c.367.04.694.212.933.468l.001-.001 5.902 5.902V6a1.5 1.5 0 1 1 3 0v4.378l5.598 5.598-.003.004c.25.268.405.625.405 1.02zm-3 2.5V30a1.5 1.5 0 0 1-1.5 1.5h-3v-12h-6v12h-14A1.5 1.5 0 0 1 3 30V19.5l13-13 13 13zm-15.5 0h-6v6h6v-6z"/></symbol><symbol id="icon-digital" viewBox="0 0 32 32"><path fill="#95e1d3" style="fill:var(--color2,#95e1d3)" d="M30.5 32h-29A1.5 1.5 0 0 1 0 30.5v-29A1.5 1.5 0 0 1 1.5 0h29A1.5 1.5 0 0 1 32 1.5v29a1.5 1.5 0 0 1-1.5 1.5zM29 3H3v26h26V3zM6.5 4.5H12a1.5 1.5 0 0 1 0 3H7.5V12a1.5 1.5 0 1 1-3 0V4.5h2zM4.5 20a1.5 1.5 0 0 1 3 0v4.5l4.5.001a1.5 1.5 0 1 1 0 3H4.5v-7.5zM20 4.5h7.5V12a1.5 1.5 0 1 1-3 0V7.5H20a1.5 1.5 0 1 1 0-3zm0 20v-.001h4.5v-4.5a1.5 1.5 0 0 1 3 0v7.5H20a1.5 1.5 0 1 1 0-3z"/></symbol><symbol id="icon-photography" viewBox="0 0 32 32"><path fill="#95e1d3" style="fill:var(--color2,#95e1d3)" d="M30.74 10.003a15.717 15.717 0 0 0-8.242-8.243A5.841 5.841 0 0 1 26.126.5 5.874 5.874 0 0 1 32 6.374a5.846 5.846 0 0 1-1.26 3.629zM30.5 16.5c0 3.852-1.512 7.343-3.962 9.94l2.028 2.028a1.482 1.482 0 0 1-2.098 2.098l-2.178-2.179A14.419 14.419 0 0 1 16 31c-3.079 0-5.928-.966-8.276-2.603l-2.163 2.164a1.5 1.5 0 0 1-2.122-2.121l2.012-2.011C3.008 23.833 1.5 20.347 1.5 16.501c0-8.008 6.492-14.5 14.5-14.5s14.5 6.492 14.5 14.5zM16 5C9.649 5 4.5 10.149 4.5 16.5S9.649 28 16 28s11.5-5.149 11.5-11.5S22.351 5 16 5zm6 13h-6a1.5 1.5 0 0 1-1.5-1.5v-8a1.5 1.5 0 0 1 3 0V15H22a1.5 1.5 0 0 1 0 3zM1.287 10.205A5.964 5.964 0 0 1 0 6.499a6 6 0 0 1 6-6c1.4 0 2.685.483 3.706 1.287a16.056 16.056 0 0 0-8.419 8.419z"/></symbol><symbol id="icon-search" viewBox="0 0 32 32"><path d="M30.785 26.636a2.933 2.933 0 1 1-4.148 4.149l-8.597-8.597a11.654 11.654 0 0 1-5.951 1.634c-6.48 0-11.733-5.253-11.733-11.733S5.609.356 12.089.356 23.822 5.61 23.822 12.089c0 2.175-.602 4.205-1.634 5.951l8.597 8.597zM12.089 3.288a8.8 8.8 0 1 0 0 17.6 8.8 8.8 0 0 0 0-17.6z"/></symbol><symbol id="icon-seo" viewBox="0 0 32 32"><path fill="#95e1d3" style="fill:var(--color2,#95e1d3)" d="m31.064 25.889-14.471 5.988a1.489 1.489 0 0 1-1.188 0L.934 25.889A1.5 1.5 0 0 1-.001 24.5v-23A1.5 1.5 0 0 1 2.072.114l.002.001.013.005 13.911 5.756L29.909.12a.07.07 0 0 1 .013-.005l.003-.001A1.498 1.498 0 0 1 31.998 1.5v23a1.5 1.5 0 0 1-.936 1.389zM14.5 8.503 3 3.744v19.753l11.5 4.759V8.503zM29 3.744 17.5 8.503v19.753L29 23.497V3.744zm-9.121 6.89 5.5-2.5a1.5 1.5 0 0 1 1.242 2.731l-5.5 2.5a1.5 1.5 0 0 1-1.242-2.731zm0 5.5 5.5-2.5a1.5 1.5 0 1 1 1.242 2.732l-5.5 2.5a1.5 1.5 0 0 1-1.242-2.731zm0 5.5 5.5-2.5a1.5 1.5 0 0 1 1.242 2.731l-5.5 2.5a1.5 1.5 0 0 1-1.242-2.731zM6 8c.221 0 .431.048.621.135l5.5 2.5a1.5 1.5 0 1 1-1.242 2.731l-5.5-2.5A1.5 1.5 0 0 1 6 8zm0 5.5c.221 0 .431.048.621.134l5.5 2.5a1.5 1.5 0 0 1-1.242 2.731v.001l-5.5-2.5A1.5 1.5 0 0 1 6 13.5zM6 19c.221 0 .431.048.621.135l5.5 2.5a1.5 1.5 0 1 1-1.242 2.731l-5.5-2.5A1.5 1.5 0 0 1 6 19z"/></symbol><symbol id="icon-webDesign" viewBox="0 0 32 32"><path fill="#95e1d3" style="fill:var(--color2,#95e1d3)" d="M30.5 32h-29A1.5 1.5 0 0 1 0 30.5v-29A1.5 1.5 0 0 1 1.5 0h29A1.5 1.5 0 0 1 32 1.5v29a1.5 1.5 0 0 1-1.5 1.5zM29 3H3v26h26V3zM5.215 16.238l-.001-.001 4.001-2.499c.228-.141.497-.222.784-.222.311 0 .601.095.84.258l.006-.009 6.631 4.42 7.638-5.391a1.5 1.5 0 1 1 1.763 2.426v.001l-8.5 6a1.49 1.49 0 0 1-1.739.011l-6.656-4.438-3.136 1.96a1.5 1.5 0 1 1-1.632-2.517z"/></symbol></defs></svg>