<svg aria-hidden="true" style="position: absolute; width: 0; height: 0; overflow: hidden;" version="1.1" xmlns="http://www.w3.org/2000/svg" xmlns:xlink="http://www.w3.org/1999/xlink">
<defs>
<symbol id="icon-basket" viewBox="0 0 32 32">
<path   stroke-linejoin="miter" stroke-linecap="butt" stroke-miterlimit="4" stroke-width="1.7778" d="M31.513 9.178l0.002 0.001-4.4 9.777c-0.217 0.482-0.686 0.825-1.24 0.861l-12.671 0.844 0.732 2.092h13.797c1.62 0 2.933 1.314 2.933 2.934s-1.313 2.933-2.933 2.933c-1.62 0-2.933-1.313-2.933-2.933h-13.689c0 1.62-1.313 2.933-2.933 2.933s-2.933-1.313-2.933-2.933c0-1.62 1.313-2.934 2.933-2.934h2.651l-5.647-16.133h-3.36c-0.81 0-1.467-0.657-1.467-1.467s0.657-1.467 1.467-1.467h4.4c0.64 0 1.179 0.412 1.379 0.984l0.005-0.002 0.854 2.441h21.717c0.81 0 1.467 0.656 1.467 1.467 0 0.214-0.049 0.416-0.131 0.601zM9.487 10.044l2.711 7.746 12.603-0.84 3.108-6.906h-18.422z"></path>
</symbol>
<symbol id="icon-creativity" viewBox="0 0 32 32">
<path fill="#95e1d3" style="fill: var(--color2, #95e1d3)" d="M30 25h-9.5v2.5l2 2v0.5h-13v-0.5l2-2v-2.5h-9.5c-0.828 0-1.5-0.672-1.5-1.5v-20c0-0.828 0.672-1.5 1.5-1.5h28c0.828 0 1.5 0.671 1.5 1.5v20c0 0.829-0.672 1.5-1.5 1.5zM29.5 4h-27v17h27v-17zM13 11c0.414 0 0.789 0.168 1.061 0.439l0.939 0.939 2.939-2.939c0.271-0.272 0.646-0.439 1.061-0.439 0.828 0 1.5 0.671 1.5 1.5 0 0.414-0.168 0.789-0.439 1.061l-4 4c-0.271 0.271-0.646 0.439-1.061 0.439s-0.789-0.168-1.061-0.439l-2-2c-0.271-0.271-0.439-0.647-0.439-1.060 0-0.829 0.672-1.5 1.5-1.5z"></path>
</symbol>
<symbol id="icon-css-html" viewBox="0 0 32 32">
<path fill="#95e1d3" style="fill: var(--color2, #95e1d3)" d="M32 17c0 0.829-0.671 1.5-1.5 1.5-0.395 0-0.752-0.156-1.020-0.405l-0.004 0.003-13.477-13.476-13.447 13.446c-0.271 0.267-0.643 0.431-1.053 0.431-0.829 0-1.5-0.671-1.5-1.5 0-0.425 0.177-0.808 0.461-1.081l14.458-14.458c0.273-0.284 0.656-0.461 1.081-0.461 0 0 0 0 0.001 0 0.027 0 0.053 0.001 0.079 0.002 0.004 0 0.008 0.001 0.012 0.001 0.023 0.002 0.045 0.003 0.067 0.006 0.001 0 0.003 0 0.004 0.001 0.367 0.040 0.694 0.212 0.933 0.468l0.001-0.001 5.902 5.902v-1.378c0-0.829 0.671-1.5 1.5-1.5s1.5 0.672 1.5 1.5v4.378l5.598 5.598-0.003 0.004c0.25 0.268 0.405 0.625 0.405 1.020zM29 19.5v10.5c0 0.828-0.672 1.5-1.5 1.5h-3v-12h-6v12h-14c-0.828 0-1.5-0.672-1.5-1.5v-10.5l13-13 13 13zM13.5 19.5h-6v6h6v-6z"></path>
</symbol>
<symbol id="icon-digital" viewBox="0 0 32 32">
<path fill="#95e1d3" style="fill: var(--color2, #95e1d3)" d="M30.5 32h-29c-0.829 0-1.5-0.672-1.5-1.5v-29c0-0.829 0.672-1.5 1.5-1.5h29c0.828 0 1.5 0.671 1.5 1.5v29c0 0.828-0.672 1.5-1.5 1.5zM29 3h-26v26h26v-26zM6.5 4.5h5.5c0.828 0 1.5 0.672 1.5 1.5s-0.671 1.5-1.5 1.5h-4.5v4.5c0 0.829-0.672 1.5-1.5 1.5s-1.5-0.672-1.5-1.5v-7.5h2zM4.5 20c0-0.828 0.672-1.5 1.5-1.5s1.5 0.672 1.5 1.5v4.5l4.5 0.001c0.828 0 1.5 0.671 1.5 1.5s-0.671 1.5-1.5 1.5h-7.5v-7.5zM20 4.5h7.5v7.5c0 0.829-0.672 1.5-1.5 1.5s-1.5-0.672-1.5-1.5v-4.5h-4.5c-0.828 0-1.5-0.671-1.5-1.5s0.672-1.5 1.5-1.5zM20 24.5v-0.001h4.5v-4.5c0-0.828 0.672-1.5 1.5-1.5s1.5 0.672 1.5 1.5v7.5h-7.5c-0.829 0-1.5-0.672-1.5-1.5s0.671-1.5 1.5-1.5z"></path>
</symbol>
<symbol id="icon-photography" viewBox="0 0 32 32">
<path fill="#95e1d3" style="fill: var(--color2, #95e1d3)" d="M30.74 10.003c-1.583-3.696-4.546-6.66-8.242-8.243 0.999-0.787 2.257-1.26 3.628-1.26 3.244 0 5.874 2.63 5.874 5.874 0 1.371-0.473 2.629-1.26 3.629zM30.5 16.5c0 3.852-1.512 7.343-3.962 9.94l2.028 2.028c0.268 0.269 0.434 0.64 0.434 1.049 0 0.819-0.664 1.483-1.483 1.483-0.41 0-0.78-0.166-1.049-0.434l-2.178-2.179c-2.351 1.643-5.205 2.613-8.29 2.613-3.079 0-5.928-0.966-8.276-2.603l-2.163 2.164c-0.272 0.271-0.646 0.439-1.061 0.439-0.828 0-1.5-0.672-1.5-1.5 0-0.414 0.168-0.789 0.439-1.060l2.012-2.011c-2.443-2.596-3.951-6.082-3.951-9.928 0-8.008 6.492-14.5 14.5-14.5s14.5 6.492 14.5 14.5zM16 5c-6.351 0-11.5 5.149-11.5 11.5s5.149 11.5 11.5 11.5c6.351 0 11.5-5.149 11.5-11.5s-5.149-11.5-11.5-11.5zM22 18h-6c-0.828 0-1.5-0.672-1.5-1.5v-8c0-0.828 0.672-1.5 1.5-1.5s1.5 0.672 1.5 1.5v6.5h4.5c0.828 0 1.5 0.672 1.5 1.5s-0.672 1.5-1.5 1.5zM1.287 10.205c-0.804-1.020-1.287-2.305-1.287-3.706 0-3.314 2.686-6 6-6 1.4 0 2.685 0.483 3.706 1.287-3.775 1.617-6.802 4.644-8.419 8.419z"></path>
</symbol>
<symbol id="icon-search" viewBox="0 0 32 32">
<path  d="M30.785 26.636c0.531 0.531 0.859 1.264 0.859 2.075 0 1.62-1.313 2.933-2.933 2.933-0.81 0-1.543-0.328-2.074-0.859l-8.597-8.597c-1.746 1.032-3.776 1.634-5.951 1.634-6.48 0-11.733-5.253-11.733-11.733s5.253-11.733 11.733-11.733c6.48 0 11.733 5.254 11.733 11.733 0 2.175-0.602 4.205-1.634 5.951l8.597 8.597zM12.089 3.288c-4.86 0-8.8 3.94-8.8 8.8s3.94 8.8 8.8 8.8c4.86 0 8.8-3.94 8.8-8.8s-3.94-8.8-8.8-8.8z"></path>
</symbol>
<symbol id="icon-seo" viewBox="0 0 32 32">
<path fill="#95e1d3" style="fill: var(--color2, #95e1d3)" d="M31.064 25.889l-14.471 5.988c-0.182 0.079-0.383 0.123-0.594 0.123s-0.412-0.044-0.594-0.123l-14.471-5.988c-0.548-0.223-0.935-0.761-0.935-1.389v-23c0-0.829 0.672-1.5 1.5-1.5 0.203 0 0.397 0.040 0.573 0.114h0l0.002 0.001c0.004 0.001 0.009 0.004 0.013 0.005l13.911 5.756 13.911-5.756c0.004-0.002 0.009-0.004 0.013-0.005l0.003-0.001c0.177-0.073 0.37-0.114 0.573-0.114 0.828 0 1.5 0.671 1.5 1.5v23c0 0.628-0.387 1.166-0.936 1.389zM14.5 8.503l-11.5-4.759v19.753l11.5 4.759v-19.753zM29 3.744l-11.5 4.759v19.753l11.5-4.759v-19.753zM19.879 10.634l5.5-2.5c0.189-0.086 0.399-0.135 0.621-0.135 0.828 0 1.5 0.672 1.5 1.5 0 0.607-0.361 1.13-0.879 1.366l-5.5 2.5c-0.189 0.086-0.399 0.135-0.621 0.135-0.828 0-1.5-0.672-1.5-1.5 0-0.607 0.361-1.13 0.879-1.366zM19.879 16.134l5.5-2.5c0.189-0.086 0.399-0.134 0.621-0.134 0.828 0 1.5 0.671 1.5 1.5 0 0.607-0.361 1.13-0.879 1.366l-5.5 2.5c-0.189 0.086-0.399 0.135-0.621 0.135-0.828 0-1.5-0.672-1.5-1.5 0-0.607 0.361-1.129 0.879-1.366zM19.879 21.634l5.5-2.5c0.189-0.086 0.399-0.135 0.621-0.135 0.828 0 1.5 0.672 1.5 1.5 0 0.607-0.361 1.13-0.879 1.366l-5.5 2.5c-0.189 0.086-0.399 0.135-0.621 0.135-0.828 0-1.5-0.672-1.5-1.5 0-0.607 0.361-1.13 0.879-1.366zM6 8c0.221 0 0.431 0.048 0.621 0.135l5.5 2.5c0.519 0.236 0.879 0.759 0.879 1.366 0 0.829-0.672 1.5-1.5 1.5-0.221 0-0.431-0.048-0.621-0.135l-5.5-2.5c-0.519-0.236-0.879-0.759-0.879-1.366 0-0.828 0.672-1.5 1.5-1.5zM6 13.5c0.221 0 0.431 0.048 0.621 0.134l5.5 2.5c0.519 0.236 0.879 0.758 0.879 1.366 0 0.828-0.672 1.5-1.5 1.5-0.221 0-0.431-0.048-0.621-0.135v0.001l-5.5-2.5c-0.519-0.236-0.879-0.758-0.879-1.366 0-0.829 0.672-1.5 1.5-1.5zM6 19c0.221 0 0.431 0.048 0.621 0.135l5.5 2.5c0.519 0.236 0.879 0.759 0.879 1.366 0 0.828-0.672 1.5-1.5 1.5-0.221 0-0.431-0.048-0.621-0.135l-5.5-2.5c-0.519-0.236-0.879-0.759-0.879-1.366 0-0.828 0.672-1.5 1.5-1.5z"></path>
</symbol>
<symbol id="icon-webDesign" viewBox="0 0 32 32">
<path fill="#95e1d3" style="fill: var(--color2, #95e1d3)" d="M30.5 32h-29c-0.828 0-1.5-0.672-1.5-1.5v-29c0-0.828 0.672-1.5 1.5-1.5h29c0.829 0 1.5 0.672 1.5 1.5v29c0 0.829-0.672 1.5-1.5 1.5zM29 3h-26v26h26v-26zM5.215 16.238l-0.001-0.001 4.001-2.499c0.228-0.141 0.497-0.222 0.784-0.222 0.311 0 0.601 0.095 0.84 0.258l0.006-0.009 6.631 4.42 7.638-5.391c0.248-0.182 0.554-0.289 0.885-0.289 0.828 0 1.5 0.671 1.5 1.5 0 0.5-0.245 0.943-0.622 1.215l0 0.001-8.5 6c-0.247 0.179-0.55 0.284-0.878 0.284-0.321 0-0.618-0.101-0.861-0.273l-6.656-4.438-3.136 1.96c-0.241 0.165-0.533 0.262-0.847 0.262-0.828 0-1.5-0.672-1.5-1.5 0-0.541 0.286-1.015 0.715-1.279z"></path>
</symbol>
</defs>
</svg>
